<svg xmlns="http://www.w3.org/2000/svg" width="67" height="38" viewBox="0 0 67 38">
    <path fill="#100249" fill-rule="evenodd" d="M13.95 22.261c-1.7 2.839-5.677 3-7.715.41-.825-1.049-1.329-2.7-1.353-4.442.004-1.603.255-3.147 1.228-4.476 2.033-2.775 6.288-2.572 7.937.452 1.45 2.658 1.471 5.437-.098 8.056m5.554.06c-.944 2.876-2.778 4.988-5.72 5.954-3.103 1.019-6.445.486-8.637-2.036-.142-.162-.275-.331-.433-.521v2.108c0 .249-.202.45-.451.45H.452a.451.451 0 0 1-.452-.45V.45C0 .202.202 0 .452 0h.939a3.611 3.611 0 0 1 3.614 3.608v6.775c.305-.327.582-.664.9-.957 1.477-1.362 3.259-1.944 5.24-1.944 1.693 0 3.29.392 4.724 1.327 1.937 1.263 3.104 3.086 3.726 5.263.788 2.75.802 5.525-.092 8.25zm45.086-3.69c2.4 2.068 2.435 5.821.138 8.001-1.296 1.229-2.879 1.833-4.612 2.026-3.23.36-6.182-.38-8.782-2.375a5.617 5.617 0 0 1-.302-.252.454.454 0 0 1-.08-.586l1.823-2.791a.453.453 0 0 1 .654-.111c.118.09.234.179.353.265 1.415 1.026 2.997 1.583 4.745 1.636.758.024 1.492-.105 2.114-.59.774-.6.8-1.7.071-2.353-.78-.698-1.753-1.047-2.697-1.444-1.44-.605-2.896-1.172-4.18-2.09-1.152-.824-2.02-1.873-2.306-3.276-.45-2.204.165-4.27 2.2-5.71 1.204-.851 2.574-1.269 4.023-1.417 2.541-.26 4.97.084 7.19 1.437.305.191.424.266.665.466.158.13.21.351.125.537l-1.382 3.013a.449.449 0 0 1-.663.184 7.324 7.324 0 0 0-2.254-1.078c-1.129-.313-2.277-.495-3.439-.187-.877.231-1.409.824-1.441 1.557-.035.78.46 1.245 1.065 1.545 1.112.552 2.259 1.031 3.399 1.526 1.272.552 2.508 1.15 3.573 2.067zm-41.542 5.903c-.188-.9-.313-1.83-.316-2.749L22.718.463c0-.25.202-.451.451-.451h.979a3.61 3.61 0 0 1 3.614 3.606l.007 17.27c0 .568.038 1.151.166 1.703.18.781.887 1.34 1.69 1.367.167.005.335.005.512.004.251-.002.457.2.457.45v3.539a.45.45 0 0 1-.413.45c-1.758.143-3.468.135-5.045-.806-1.162-.693-1.82-1.774-2.09-3.06zM50.295 7.972c.293 0 .495.292.391.566l-1.77 4.646-6.54 17.161-.012-.008-.114.306C40.34 35.043 34.85 38 28.586 38c-4.783 0-9.254-1.768-11.894-4.658a.752.752 0 0 1 .097-1.099l2.615-2.038a.754.754 0 0 1 1.006.075c1.75 1.789 4.869 2.917 8.176 2.917 3.613 0 7.927-1.515 9.226-4.41l.29-.777c.111-.3.103-.634-.023-.929l-7.92-18.496a.45.45 0 0 1 .415-.628h2.563c1.491 0 2.828.914 3.369 2.3l4.402 10.884 4.327-12.858a.452.452 0 0 1 .43-.311h4.63z"/>
</svg>
