<?xml version="1.0" encoding="UTF-8"?>
<svg width="53px" height="30px" viewBox="0 0 53 30" version="1.1" xmlns="http://www.w3.org/2000/svg" xmlns:xlink="http://www.w3.org/1999/xlink">
    <!-- Generator: Sketch 58 (84663) - https://sketch.com -->
    <title>Combined Shape</title>
    <desc>Created with Sketch.</desc>
    <g id="Main" stroke="none" stroke-width="1" fill="none" fill-rule="evenodd">
        <g id="Landing---Forgot-password" transform="translate(-1353.000000, -560.000000)" fill="#FFFFFF">
            <g id="Group-12" transform="translate(1081.000000, 0.000000)">
                <g id="Group-9" transform="translate(105.000000, 560.000000)">
                    <g id="Group-2">
                        <path d="M178.012509,17.5748304 C176.670725,19.8157169 173.531243,19.9422794 171.922059,17.8979045 C171.270825,17.07009 170.873381,15.7659675 170.853975,14.3911411 C170.857755,13.1257674 171.055343,11.906691 171.823769,10.8574549 C173.428416,8.66663983 176.787665,8.82742205 178.089629,11.2147487 C179.233825,13.3132209 179.251215,15.5065521 178.012509,17.5748304 M168.098075,0 C169.617709,0 170.859643,1.18596241 170.946414,2.68117481 L170.951257,2.84853761 L170.951257,8.19687393 C171.192193,7.93871656 171.4107,7.6725075 171.661465,7.44152459 C172.828091,6.36612049 174.234394,5.90692244 175.798465,5.90692244 C177.13546,5.90692244 178.39584,6.21640935 179.528443,6.95464885 C181.056978,7.95129733 181.978384,9.39053725 182.470086,11.1093218 C183.091833,13.2812657 183.10267,15.4715775 182.396998,17.6218825 C181.652011,19.8924596 180.203872,21.5599147 177.881204,22.3225608 C175.431767,23.1267236 172.793312,22.7060227 171.0624,20.7152419 C170.987969,20.6296926 170.916225,20.541795 170.839852,20.4482686 L170.720906,20.3033475 L170.720906,21.9675316 C170.720906,22.1396994 170.598957,22.283356 170.436439,22.3165801 L170.364541,22.3238189 L167.356616,22.3238189 C167.184168,22.3238189 167.04047,22.2016832 167.00724,22.0393333 L167,21.9675316 L167,0.35603575 C167,0.184088096 167.122142,0.0404589653 167.284708,0.00723836483 L167.356616,0 L168.098075,0 Z M218.26931,7.10597033 C218.509994,7.25693955 218.603748,7.31581755 218.794531,7.473832 C218.898072,7.55980059 218.943856,7.69504385 218.917446,7.82262798 L218.892821,7.8978039 L217.802054,10.2765756 C217.710317,10.4768615 217.458796,10.547817 217.278093,10.4215061 C216.726409,10.0352765 216.13793,9.74868657 215.499045,9.57104612 C214.607882,9.32345659 213.701598,9.18028745 212.784225,9.42284466 C212.091407,9.60576904 211.671784,10.0737736 211.646078,10.6522374 C211.618859,11.268695 212.010003,11.6355502 212.486835,11.8723203 C213.36464,12.3076149 214.27042,12.686296 215.170151,13.0765515 C216.174473,13.5123493 217.150568,13.9851346 217.991074,14.709032 C219.886306,16.3412609 219.914029,19.3045351 218.099949,21.0255843 C217.077481,21.9953099 215.827686,22.472121 214.459187,22.6248515 C211.90894,22.9094285 209.578712,22.324926 207.525964,20.7498138 C207.445064,20.6879164 207.367944,20.62149 207.2878,20.550786 C207.174388,20.450068 207.137819,20.2907493 207.190471,20.1539571 L207.224289,20.0878138 L208.663355,17.884418 C208.776767,17.7108034 209.015183,17.6707965 209.180008,17.7971074 C209.273257,17.8688178 209.364994,17.9382637 209.458496,18.0061998 C210.575977,18.8161497 211.825016,19.2559733 213.205108,19.2982447 C213.803417,19.3166127 214.382571,19.2147084 214.873769,18.8327563 C215.484427,18.3584613 215.505597,17.4903883 214.929719,16.9745768 C214.31402,16.4232875 213.545594,16.1480203 212.800355,15.8347592 C211.664224,15.3569416 210.513979,14.9095694 209.501088,14.1851688 C208.591024,13.5342398 207.90627,12.705922 207.680203,11.5980595 C207.325099,9.85788764 207.809997,8.22666519 209.416408,7.09062179 C210.3673,6.41830552 211.448742,6.08868939 212.59319,5.97118501 C214.599061,5.76586687 216.516724,6.0381147 218.26931,7.10597033 Z M185.291285,0.00915879949 L186.064247,0.00915879949 C187.583395,0.00915879949 188.825546,1.19441932 188.912559,2.68935597 L188.917429,2.85668995 L188.922721,16.4904688 C188.923478,16.9388474 188.952965,17.3995551 189.053775,17.8351014 C189.195917,18.451559 189.754406,18.893144 190.387494,18.9140281 C190.52006,18.9183055 190.652373,18.9183055 190.792751,18.9175507 C190.966082,18.9162297 191.11182,19.0383929 191.145546,19.201276 L191.152896,19.2733348 L191.152896,22.0662654 C191.152896,22.2512027 191.011257,22.4061978 190.827027,22.4212947 C189.439374,22.5350249 188.089021,22.5282312 186.844267,21.7857143 C185.926894,21.2387025 185.406965,20.3849715 185.194759,19.3692003 C185.076206,18.8007508 184.989429,18.2166811 184.95817,17.6347692 L184.945506,17.1990177 L184.934921,0.365446164 C184.9347,0.193278347 185.057008,0.0496216963 185.21945,0.0163976558 L185.291285,0.00915879949 L186.064247,0.00915879949 Z M199.295,16.689 L202.711923,6.53913122 C202.759807,6.39269108 202.896657,6.29330301 203.051149,6.29330301 L203.051149,6.29330301 L206.706528,6.29330301 C206.937887,6.29330301 207.097419,6.52428592 207.015259,6.7401719 L207.015259,6.7401719 L205.617273,10.408724 L200.454277,23.956702 L200.444953,23.9504116 L200.355231,24.1917108 C198.847866,27.6657642 194.513279,30 189.567781,30 C185.791682,30 182.262064,28.6045412 180.177812,26.322893 C179.944941,26.0680066 179.981988,25.6674349 180.254428,25.4550716 L180.254428,25.4550716 L182.319273,23.8462429 C182.559958,23.6587894 182.899436,23.687222 183.112902,23.9053725 C184.495262,25.317438 186.957048,26.2081564 189.567781,26.2081564 C192.419954,26.2081564 195.82608,25.0124801 196.851824,22.7260512 L196.851824,22.7260512 L197.080159,22.1131162 C197.168368,21.8755913 197.162067,21.6129048 197.062265,21.379909 L197.062265,21.379909 L190.809007,6.77791421 C190.708197,6.54290545 190.881086,6.28198031 191.137144,6.28198031 L191.137144,6.28198031 L193.161161,6.28198031 C194.337869,6.28198031 195.393604,7.00310997 195.820283,8.09788844 L195.820283,8.09788844 L199.295,16.689 Z" id="Combined-Shape"></path>
                    </g>
                </g>
            </g>
        </g>
    </g>
</svg>