<?xml version="1.0" encoding="UTF-8"?>
<svg width="381px" height="182px" viewBox="0 0 381 182" version="1.1" xmlns="http://www.w3.org/2000/svg" xmlns:xlink="http://www.w3.org/1999/xlink">
    <!-- Generator: Sketch 58 (84663) - https://sketch.com -->
    <title>Group 31</title>
    <desc>Created with Sketch.</desc>
    <g id="Main" stroke="none" stroke-width="1" fill="none" fill-rule="evenodd">
        <g id="Booking-3-(Location)" transform="translate(-1299.000000, 0.000000)">
            <g id="Group-31" transform="translate(1210.000000, 0.000000)">
                <g id="Group-7">
                    <g id="Group-8">
                        <g transform="translate(7.413754, -700.181735)">
                            <path d="M532.98264,938.153083 C517.761656,939.432965 504.927871,911.95467 502.108786,895.631278 C496.078515,860.710428 498.739607,828.84701 489.955409,792.494789 C485.906975,775.743426 475.871516,755.054495 462.138207,752.771789 C442.210291,749.460339 418.573568,771.114077 410.242592,784.538438 C402.799031,796.534309 400.503515,810.322705 394.854389,822.79781 C379.132324,857.522243 368.831045,895.046057 340.366877,925.486168 C319.458134,947.845511 285.182377,971.058541 259.224767,949.565509 C244.917146,937.718824 240.706682,915.037494 242.645271,901.966223 C245.174894,890.170227 247.706247,878.370198 250.236446,866.574778 C256.518699,825.257398 253.608365,793.915792 260.269455,752.955535 C265.45844,726.761729 270.648578,700.559284 275.837563,674.364327 C283.352625,624.827938 288.824152,572.978892 292.899111,522.690817 C293.531085,508.232528 294.164211,493.770782 294.796761,479.311917 C297.96124,453.419362 301.126873,427.518743 304.292505,401.626188 C309.213363,348.648748 316.765328,294.421955 338.265104,246.81115 C340.891022,238.771855 343.51867,230.731408 346.144588,222.692689 C353.977367,205.330761 359.947092,187.406652 368.388202,170.079284 C374.097873,158.358168 378.454798,145.877302 389.009213,135.690087 C396.190989,128.758448 407.354889,123.665416 418.202803,118.159965 C425.270409,114.574337 432.340321,110.987557 439.407927,107.401929 C459.064256,102.292193 479.772336,123.823242 488.305129,151.112031 C499.989715,188.47802 496.069866,218.280494 499.359471,252.086775 C500.026042,258.930861 506.519336,290.576549 516.111376,292.52978 C543.233754,298.052512 548.813685,251.982518 549.853328,238.976336 C551.094786,217.865771 552.336821,196.748293 553.578856,175.637728 C556.692593,154.120503 563.984503,133.620502 568.377179,112.663154 C570.49279,103.977582 572.608978,95.2891298 574.725166,86.6035576 C579.347912,76.5632229 604.750239,57.9692211 618.6179,59.4403366 C640.529382,61.7639389 675.670209,99.8556936 685.950153,135.125602 C702.882539,193.223146 689.603028,239.537365 686.493328,290.374948 C685.810612,301.538491 688.269887,331.431973 700.297561,345.363795 C711.321919,358.133815 721.432338,340.354859 724.0917,332.204972 C729.58168,315.375848 736.999293,279.515534 749.076556,266.78065 C760.122249,255.132687 776.747297,250.239529 786.786792,257.436705 C801.264516,267.815155 799.451052,287.356684 799.423375,299.422826 C799.341495,335.439813 798.701449,369.589969 795.957324,403.95843 C793.969145,432.879617 791.98039,461.808292 789.992211,490.728903 C789.845174,501.86019 789.69756,512.993781 789.550522,524.124492 C782.67147,601.242281 771.459711,677.437887 756.255449,752.008583 C750.247667,781.473518 737.528628,808.914374 727.052057,836.973858 C722.857738,839.075122 718.527337,841.786375 715.141437,841.385476 C694.363009,838.924209 688.336775,768.769163 663.689818,771.237918 C639.733072,773.636977 635.290231,799.217338 630.73149,811.342233 C623.38653,828.29923 616.039265,845.261987 608.694305,862.21956 C602.47894,875.214222 600.192074,888.382837 590.050517,900.499668 C583.504751,906.539075 576.957254,912.580211 570.411487,918.620194 C567.025586,920.881588 563.638533,923.143557 560.252632,925.405527 C552.406592,929.605176 540.585347,937.513718 532.98264,938.153083 Z" id="Fill-2" fill="#B9E5EC" transform="translate(520.855546, 508.731457) rotate(48.000000) translate(-520.855546, -508.731457) "></path>
                            <path d="M162.49725,599.400135 C162.428565,599.19345 162.359879,598.987613 162.291194,598.781776 L162.291194,599.400135 L162.49725,599.400135 Z M202.556973,672.213106 C206.679795,666.439502 211.806612,661.44774 215.564808,655.093049 C220.761158,646.308125 223.201611,635.076873 226.508688,624.565627 C232.876082,604.33006 237.839241,580.429238 234.975652,551.957646 L234.149731,551.957646 C231.603282,553.539118 229.055985,555.121438 226.508688,556.702064 C221.554008,561.033114 216.597633,565.365011 211.642106,569.696908 C191.647859,585.659872 174.156815,605.263527 163.943036,630.96013 C159.397078,642.395525 154.765474,665.077419 158.780605,681.083584 C160.024574,686.040616 161.440681,691.685466 164.149092,695.315145 C165.525345,696.828852 166.902446,698.341713 168.278699,699.853726 C184.630921,696.946594 194.405452,683.629865 202.556973,672.213106 L202.556973,672.213106 Z M101.535955,677.285339 C101.442678,677.387834 101.349402,677.490329 101.256125,677.593671 C100.247891,681.671448 99.2379606,685.749225 98.2288782,689.827849 C96.945054,696.055481 96.3811551,702.382219 95.8248878,708.611544 C94.3935172,724.638039 95.5594737,740.405331 100.559095,756.115869 C102.330501,761.6794 106.037819,766.566973 109.518729,772.073751 C116.236335,782.697656 124.78216,793.284291 136.668981,803.72523 C138.496353,797.0207 140.326269,790.313629 142.153641,783.6091 C149.286751,757.333103 139.883629,726.749775 123.007362,701.558023 C117.641418,693.549012 110.4074,684.391378 101.535955,677.285339 L101.535955,677.285339 Z M246.088278,679.846867 C242.384352,681.834085 238.680426,683.823843 234.9765,685.812755 C229.49184,689.040078 224.41675,692.867123 219.42052,696.634027 C206.562775,706.327007 195.64179,717.770025 187.335092,732.015986 C184.39349,737.060266 183.252972,743.084601 181.50107,749.358821 C178.121916,761.461704 175.998603,774.895329 176.223314,790.705821 C182.426203,787.561511 188.631636,784.415507 194.83622,781.271197 C219.125427,768.924358 235.517504,741.440446 242.893981,712.035386 C245.237765,702.68801 247.182157,691.184002 246.503782,679.846867 L246.088278,679.846867 Z M358.043,477.700426 L357.423983,477.700426 C351.918972,480.656688 346.411417,483.613796 340.905558,486.570057 C332.750646,491.369535 325.20712,497.059279 317.778069,502.659235 C298.664013,517.068679 282.428811,534.080312 270.078151,555.258663 C265.706026,562.757741 264.010089,571.71462 261.406826,581.041667 C256.383462,599.035049 253.224779,619.006331 253.559727,642.511573 C262.782231,637.835767 272.007279,633.159114 281.229783,628.484156 C317.339669,610.129076 341.71028,569.269987 352.674512,525.554589 C356.16051,511.658467 359.052082,494.557893 358.043,477.700426 L358.043,477.700426 Z M145.771074,506.166089 C142.969386,489.633896 140.276239,471.444842 137.511862,454.598387 C137.23712,454.461163 136.96153,454.323091 136.68594,454.185019 C134.23616,457.095539 130.985049,459.370759 128.632785,462.437139 C114.469169,480.897255 102.079503,500.415356 95.3881841,526.380479 C92.7518504,536.611346 90.107037,550.938625 92.2905556,564.334978 C92.7035162,570.7964 93.1164768,577.260363 93.5294374,583.723479 C95.229614,593.280081 96.1267645,602.022652 98.6918689,610.538209 C103.770352,627.399911 112.81563,638.431255 119.754556,653.237127 C120.510943,652.892371 121.268179,652.548462 122.024567,652.2054 C124.778768,643.405228 127.532122,634.603362 130.284627,625.803191 C133.010845,618.118605 136.400175,610.588186 138.544687,602.081946 C142.354609,586.969437 144.116687,571.481677 146.803899,555.258663 C146.666528,546.321267 146.528309,537.380482 146.390939,528.443085 C146.184882,521.018549 145.978826,513.590625 145.771074,506.166089 L145.771074,506.166089 Z M162.49725,598.781776 L162.704154,598.781776 C163.959996,595.29864 168.270219,593.100502 170.963366,590.943025 C175.368562,586.129994 179.774606,581.316116 184.178106,576.50478 C190.235144,567.566536 196.29303,558.626599 202.350068,549.688355 C207.656654,542.183348 214.348821,535.15185 218.043419,526.173795 C226.00669,506.819177 227.750961,484.305002 227.74842,456.660994 C227.679732,446.624105 227.610198,436.582981 227.542361,426.546093 L227.128552,426.546093 C222.5173,430.325703 217.9052,434.108701 213.293948,437.890005 C206.288881,443.502666 199.746805,452.002129 194.502969,459.341959 C179.390476,480.49998 170.0518,501.800309 163.943036,532.361614 C160.384113,550.164406 162.686347,572.49985 163.530076,591.355546 C163.1858,593.830674 162.841525,596.306648 162.49725,598.781776 L162.49725,598.781776 Z" id="Fill-17" fill="#FEDDCB" transform="translate(224.864093, 615.135661) rotate(7.000000) translate(-224.864093, -615.135661) "></path>
                            <path d="M394.695206,771.639329 C393.339753,770.669087 392.617373,771.241308 390.78051,770.736655 C385.722267,769.347277 384.139056,773.360216 383.854225,778.55719 C384.105235,780.562604 384.356773,782.568546 384.607255,784.57396 C385.219719,787.795081 384.752576,792.932404 385.059072,796.305554 C385.360284,801.56904 385.660967,806.83411 385.962708,812.098124 C386.361153,816.747159 384.732495,825.737474 391.231799,824.130609 C395.362628,823.108635 396.849663,815.378895 395.899524,809.391158 C394.081685,797.930367 398.328771,783.3118 394.695206,771.639329 M372.110667,734.038474 C369.54931,732.320226 368.209182,735.073646 367.14173,736.294103 C363.725354,740.198828 365.030605,751.229925 364.582487,757.802025 C366.567842,763.079236 362.831231,767.27271 368.044837,769.984427 C374.884457,770.420456 375.083679,749.260407 374.068014,741.558645 C373.668513,738.5302 374.101306,735.373481 372.110667,734.038474 M354.644613,611.457996 C347.178789,609.820514 346.330112,623.139441 345.159614,628.904941 C341.341623,647.710119 342.880445,671.16011 342.750448,690.871657 C342.80065,692.325437 342.850852,693.779745 342.900526,695.233525 C343.696887,700.702357 343.044262,706.151129 345.761509,710.12395 C346.428402,711.097888 347.4261,711.290036 348.471358,711.928242 C353.866747,715.223266 358.173546,710.642328 359.763627,706.213419 C362.131574,699.619676 360.813113,690.695346 362.022715,683.050595 C362.172793,678.338743 362.323399,673.624779 362.474005,668.912399 C363.249229,663.986755 362.42803,659.094896 362.926351,654.473839 C363.517677,648.977558 363.600114,640.206841 362.926351,634.62082 C361.696139,624.426939 365.623517,613.866182 354.644613,611.457996 M341.696207,744.565974 C339.045544,743.928824 339.001683,746.092602 338.082723,747.273468 C337.106163,748.52771 335.298364,748.245822 334.619317,749.980962 C334.318633,756.447486 334.01795,762.916121 333.71621,769.383172 C335.675143,773.48638 332.05796,795.448805 341.395524,789.23672 C343.989116,787.510554 343.978547,783.016188 344.707268,779.309418 C346.209627,771.672058 346.907699,763.315726 345.761509,755.395422 C345.188678,751.43791 345.227783,745.415333 341.696207,744.565974 M322.42394,643.043137 C322.421826,639.888001 323.31912,634.42656 321.822045,632.214217 C320.236192,629.87096 316.095323,630.25948 314.745155,632.514581 C313.313606,634.905347 314.346181,644.354917 314.293865,647.404477 C315.968497,651.920486 312.963778,671.847937 320.617198,669.21329 C322.448777,668.583002 323.356111,665.120641 323.026364,662.445347 C322.825556,655.978824 322.624748,649.510189 322.42394,643.043137 M312.034777,771.939693 C308.751569,773.182849 309.21924,785.910023 309.324929,791.041012 C310.519735,794.228348 308.386416,801.248089 311.282276,802.62216 C311.797507,802.859178 312.255666,802.739877 312.637729,802.471714 C314.090944,801.607048 313.689328,798.321526 314.142731,796.456 C315.370301,791.408944 316.763802,784.05875 315.798867,777.956463 C315.398837,775.425281 315.672041,770.4194 312.034777,771.939693 M304.657203,700.046731 C298.425291,698.552832 297.885752,707.664559 298.484476,712.229133 C298.333342,716.590474 298.182736,720.95287 298.03213,725.31421 C297.982457,735.390373 297.932255,745.469704 297.882053,755.545868 C298.392528,756.557813 298.555816,757.731817 299.387583,758.403279 C301.505577,760.113609 306.997671,760.668938 307.970004,757.802025 L307.970004,753.741048 C308.566086,751.047279 308.040815,747.212762 308.120082,743.96472 C308.170812,733.437219 308.220485,722.907079 308.270687,712.379579 C308.901647,707.643444 308.878395,701.058148 304.657203,700.046731 M283.578723,774.196378 C282.640739,774.224883 282.356437,774.368466 281.771452,774.647187 C281.620846,775.399415 281.470241,776.151115 281.319635,776.903344 C280.951839,777.468702 280.091008,777.431223 279.814104,778.256827 C279.713701,779.961349 279.613297,781.665872 279.512893,783.370923 C278.536861,789.307983 278.711775,794.386712 278.759863,800.666894 C279.63602,803.000649 279.045222,804.283924 281.169557,805.329654 C281.821654,805.229357 282.47428,805.129059 283.126377,805.028762 C286.746202,803.27937 285.232745,788.222135 285.23433,782.468249 C285.234859,779.228653 285.707814,775.352962 283.578723,774.196378 M279.211681,682.298895 C278.331297,676.198191 280.760543,669.505735 276.201149,666.506324 C268.923979,661.718985 269.708715,679.007038 269.424942,683.351486 C269.876759,692.274761 270.328577,701.200675 270.780394,710.12395 C270.780394,714.773512 270.510889,721.313411 275.447591,720.651978 C279.578419,720.097705 279.248672,714.079879 279.814104,709.822531 C280.923303,701.472005 280.332506,690.065057 279.211681,682.298895 M254.971005,799.914666 C253.814247,800.636277 254.059444,804.146148 254.06737,805.931436 L254.06737,820.21955 C255.749928,824.904481 252.700292,833.061802 258.283278,833.755964 C259.574789,833.916967 260.678175,832.943029 261.143732,832.252035 C263.368472,828.955956 262.341181,807.469677 260.993655,803.074025 C260.405499,801.156238 257.621669,797.691238 254.971005,799.914666 M257.530777,780.212092 C257.882191,780.262241 258.233604,780.312389 258.585018,780.362538 L259.488125,779.459864 C261.029061,771.258728 259.391948,763.189035 259.789336,754.191857 C259.989616,750.683042 260.190952,747.172643 260.391231,743.663828 C259.441093,741.463627 257.076845,739.813476 254.820928,738.851151 C253.508279,738.92611 253.299545,739.338384 252.56184,739.903743 C252.461436,741.10678 252.361032,742.309818 252.261157,743.513383 C252.311359,746.420943 252.361032,749.329031 252.411234,752.236591 C253.66047,760.568641 251.743812,770.366084 253.917293,777.806017 C254.561463,778.245213 255.103644,778.447919 256.025247,778.708164 C256.800999,778.734557 256.709579,779.733833 257.530777,780.212092 M231.633437,724.561982 C230.402168,724.234696 229.430892,724.353469 228.321164,724.712955 C226.65076,727.032458 226.73584,732.148138 226.815634,736.143657 C228.625547,740.896684 225.437458,752.456189 231.482831,752.688456 C233.495137,751.861269 234.417796,750.222203 233.891996,746.972577 C233.085066,741.989395 233.751431,727.349185 231.633437,724.561982 M208.145262,766.525233 C207.84405,766.023747 207.542839,765.522262 207.241627,765.021304 C206.247628,762.133804 207.792792,760.740202 205.284279,759.456399 C202.054444,759.379328 201.049348,761.873559 201.0689,764.720413 C203.054784,769.70729 201.48267,785.62708 205.736625,787.431372 C207.836124,787.280398 208.784148,786.021934 209.199503,784.273069 C208.797888,780.763726 208.396272,777.253856 207.994656,773.744513 C208.044858,771.338438 208.09506,768.931308 208.145262,766.525233" id="Fill-35" fill="#100249" transform="translate(298.644077, 722.546617) rotate(17.000000) translate(-298.644077, -722.546617) "></path>
                        </g>
                    </g>
                </g>
            </g>
        </g>
    </g>
</svg>