<svg xmlns="http://www.w3.org/2000/svg" width="250" height="202" viewBox="0 0 250 202">
    <g fill="none" fill-rule="evenodd">
        <path fill="#FEDDCB" d="M-222.96 430.83c-7.289-6.835.55-25.19 7.31-33.757 14.461-18.329 31.23-31.085 45.186-51.383 6.431-9.354 12.17-23.355 7.277-31.037-7.1-11.147-28.05-13.089-38.27-11.22-9.132 1.672-16.889 6.635-25.47 9.39-23.886 7.668-46.77 19.206-74.134 18.792-20.101-.305-46.47-6.731-47.306-28.826-.461-12.178 8.803-24.226 16.052-29.047l20.654-11.915c22.982-15.164 37.056-30.398 60.03-45.22 15.098-9.027 30.2-18.058 45.3-27.085 27.547-18.19 55.332-38.391 81.741-58.583l22.073-18.205 42.199-29.637C-32.222 62.13-2.362 41.89 30.363 31.349l15.26-6.804c11.93-3.848 23.32-8.85 35.5-12.386 8.238-2.393 16.257-5.778 25.865-5.14 6.538.435 13.918 3.616 21.362 6.462l14.55 5.564c11.105 7.302 9.625 26.861-.004 43.042-13.183 22.155-29.493 33.39-44.608 49.895-3.06 3.342-15.715 20.452-12.473 25.975 9.167 15.62 34.169-1.981 40.993-7.21l32.647-26.117c11.9-7.974 25.13-13.469 37.316-20.574l15.54-8.404c6.94-2.18 27.163 1.969 32.512 9.359 8.453 11.675 5.18 45.553-7.592 66.101-21.04 33.847-49.532 47.813-75.788 68.717-5.765 4.59-19.328 18.967-20.886 30.956-1.428 10.99 11.704 8.065 16.858 5.764 10.645-4.751 31.452-16.957 42.974-16.702 10.538.234 20.211 6.158 21.08 14.211 1.255 11.614-9.108 19.349-15.029 24.655-17.673 15.841-34.676 30.588-52.708 44.408l-45.102 35.36-16.547 14.51a1364.162 1364.162 0 0 1-126.166 84.295c-17.058 10.071-36.063 15.988-54.39 23.267-2.864-1.112-6.087-2.022-7.372-3.844-7.89-11.186 23.828-45.048 11.831-55.94-11.66-10.588-26.131-1.468-34.064 1.662l-34.56 11.72c-9.084 2.709-16.533 7.404-26.906 7.817-5.822-.52-11.646-1.038-17.469-1.557l-7.769-1.946c-5.49-1.963-14.537-4.222-18.178-7.636z"/>
        <path fill="#FFB7C3" d="M-4.08 84.45c-.02-.11-.042-.218-.063-.327l-.039.315.102.012zm15.257 39.56c2.401-2.693 5.25-4.927 7.506-7.94 3.12-4.163 5.031-9.741 7.325-14.9 4.417-9.931 8.368-21.817 8.734-36.508l-.409-.05-4.076 1.955-8.168 5.723C11.2 79.215 1.321 88.148-5.34 100.63c-2.964 5.555-6.675 16.84-5.691 25.244.305 2.604.652 5.568 1.764 7.583l1.759 2.565c8.27-.49 13.94-6.686 18.686-12.012zm-50.288-3.549l-.157.14-2.264 6.054c-1.025 3.098-1.7 6.29-2.365 9.432-1.711 8.085-2.122 16.195-.632 24.51.528 2.944 2.056 5.662 3.433 8.68 2.657 5.826 6.222 11.743 11.448 17.789l3.972-9.924c5.174-12.965 2.437-29.13-4.333-43-2.153-4.41-5.158-9.519-9.102-13.681zm71.343 10.086l-5.87 2.367c-2.915 1.312-5.665 2.955-8.372 4.573-6.967 4.161-13.086 9.332-18.086 16.092-1.771 2.393-2.713 5.396-3.972 8.488-2.43 5.966-4.32 12.687-5.2 20.763l9.798-3.68c12.788-4.821 22.617-17.84 28.107-32.385 1.744-4.624 3.426-10.371 3.8-16.193l-.205-.025zm68.034-96.274l-.306-.038-8.726 3.52c-4.334 1.952-8.422 4.395-12.447 6.799C68.43 50.74 59.334 58.428 51.899 68.477c-2.632 3.558-4.032 8.022-5.904 12.62-3.611 8.87-6.424 18.86-7.73 30.866l14.566-5.472c19.01-7.166 33.624-26.52 41.784-48.144 2.594-6.873 5.095-15.417 5.651-24.074zM-6.516 35.895c-.351-8.6-.545-18.038-.857-26.796l-.383-.26c-1.394 1.335-3.145 2.297-4.5 3.718-8.162 8.552-15.512 17.752-20.448 30.585-1.944 5.057-4.15 12.201-3.908 19.165l-.601 9.961c.242 4.976.139 9.488.874 13.986 1.457 8.906 5.24 15.08 7.746 23.051l1.187-.388 5.74-12.96c1.829-3.753 3.977-7.387 5.57-11.594 2.83-7.474 4.672-15.264 7.017-23.373l1.475-13.698 1.088-11.397zm2.475 48.24l.102.013c.84-1.7 3.11-2.56 4.576-3.496 2.48-2.186 4.962-4.373 7.441-6.56l10.668-12.569c3.095-3.504 6.845-6.683 9.235-11.037 5.15-9.385 7.423-20.759 9.152-34.854L38.917.264l-.205-.025c-2.518 1.647-5.036 3.296-7.553 4.944-3.817 2.436-7.585 6.372-10.639 9.796C11.72 24.85 5.767 35.144.832 50.356c-2.875 8.861-3.134 20.39-3.897 30.055l-.976 3.724z"/>
        <path fill="#100249" d="M124.332 228.925c-1.012-1.324-1.87-.988-3.48-2.007-4.43-2.808-7.118.567-8.91 5.453l-1.039 5.974c-.356 3.26-2.304 8.036-2.997 11.352l-3.754 15.366c-.978 4.563-5.164 12.684 1.521 13.048 4.25.23 7.931-6.727 8.773-12.731 1.613-11.492 9.948-24.23 9.886-36.455m-10.604-42.56c-1.947-2.393-4.034-.151-5.411.704-4.409 2.735-6.386 13.666-8.736 19.82.356 5.627-4.444 8.545-.25 12.662 6.413 2.417 12.79-17.76 14.07-25.423.504-3.013 1.84-5.905.327-7.763m19.136-122.331c-6.66-3.75-11.366 8.74-14.171 13.911-9.15 16.867-14.534 39.743-20.421 58.555l-1.132 4.215c-.838 5.463-3.055 10.483-1.618 15.076.353 1.127 1.251 1.602 2.064 2.518 4.196 4.728 9.654 1.607 12.47-2.164 4.192-5.613 5.54-14.533 8.932-21.49l4.565-13.388c2.182-4.484 2.827-9.402 4.655-13.676 2.172-5.083 4.815-13.446 5.804-18.985 1.804-10.108 8.647-19.06-1.148-24.572m-51.3 123.506c-2.348-1.385-3.023.672-4.247 1.532-1.3.914-2.947.116-4.103 1.577-2.178 6.096-4.357 12.194-6.537 18.29.674 4.497-9.206 24.442 1.54 21.232 2.985-.893 4.288-5.194 6.07-8.526 3.669-6.864 6.78-14.651 8-22.56.608-3.953 2.407-9.7-.722-11.545M92.817 84.818c.92-3.018 3.375-7.978 2.59-10.531-.831-2.705-4.905-3.544-6.855-1.782-2.068 1.867-3.843 11.206-4.785 14.107.281 4.808-8.419 22.987-.33 22.705 1.936-.068 3.816-3.113 4.283-5.768l5.097-18.73M45.196 205.044c-3.503.229-6.777 12.537-8.176 17.475.21 3.397-3.882 9.486-1.514 11.647.423.377.896.397 1.34.252 1.642-.402 2.219-3.661 3.198-5.313 2.65-4.467 6.131-11.089 6.992-17.206.358-2.538 2.083-7.245-1.84-6.855m13.964-70.908c-5.523-3.251-8.703 5.305-9.465 9.845l-4.258 12.381-8.982 28.867c.192 1.117.005 2.287.604 3.173 1.525 2.254 6.615 4.391 8.383 1.934l1.188-3.884c1.357-2.402 1.976-6.222 3.001-9.305l9.379-30.161c1.988-4.345 3.891-10.65.15-12.85m-41.836 64.746c-.906-.247-1.22-.192-1.86-.097l-1.092 2.026c-.517.433-1.33.145-1.836.854l-1.783 4.802c-2.67 5.393-3.987 10.3-5.777 16.32.156 2.488-.785 3.543.941 5.164l1.96.284c3.973-.614 6.928-15.456 8.611-20.958.948-3.098 2.533-6.666.836-8.395m22.692-89.158c.941-6.092 5.221-11.782 1.738-15.983-5.56-6.706-9.864 10.056-11.405 14.128l-6.532 25.999c-1.359 4.446-3.529 10.622 1.386 11.432 4.112.678 5.556-5.173 7.341-9.08 3.503-7.66 6.273-18.742 7.472-26.496m-57.57 105.389c-1.317.352-2.108 3.78-2.623 5.49l-4.177 13.663c.24 4.973-5.062 11.882.074 14.178 1.188.531 2.528-.077 3.175-.602 3.091-2.502 8.39-23.35 8.387-27.947-.001-2.006-1.65-6.133-4.835-4.782m8.208-18.093l.964.452 1.128-.6c3.871-7.392 4.665-15.587 7.675-24.075l3.654-9.892c-.265-2.382-2.044-4.651-3.92-6.231-1.277-.312-1.597.02-2.468.346l-1.343 3.364-2.407 8.386c-1.241 8.333-5.938 17.142-6.035 24.892.487.609.947.96 1.752 1.48.734.251.354 1.18 1 1.878m-8.495-60.79c-1.082-.673-2.046-.844-3.212-.825-2.276 1.73-3.69 6.647-4.782 10.492.341 5.074-6.087 15.196-.374 17.186 2.166-.203 3.528-1.5 3.975-4.762.686-5.001 5.603-18.807 4.393-22.091m-34.731 33.262l-.424-1.703c-.107-3.051 1.778-3.932-.245-5.894-3.066-1.018-4.757 1.074-5.57 3.802.44 5.35-5.717 20.114-2.177 23.083 2.052.47 3.327-.457 4.235-2.008l1.926-10.42 2.255-6.86"/>
    </g>
</svg>
